<mxfile host="app.diagrams.net" modified="2024-03-08T01:11:50.790Z" agent="Mozilla/5.0 (Windows NT 10.0; Win64; x64) AppleWebKit/537.36 (KHTML, like Gecko) Chrome/121.0.0.0 Safari/537.36 OPR/107.0.0.0" etag="TF1A4mv9LNY8UBPL40g9" version="23.1.6" type="github">
  <diagram name="PÃ¡gina-1" id="LL0J9OKaUzZwowu5yhD_">
    <mxGraphModel dx="1009" dy="589" grid="1" gridSize="10" guides="1" tooltips="1" connect="1" arrows="1" fold="1" page="1" pageScale="1" pageWidth="827" pageHeight="1169" math="0" shadow="0">
      <root>
        <mxCell id="0" />
        <mxCell id="1" parent="0" />
        <mxCell id="jMSQg3RDcd7D9PXwIHBd-5" style="edgeStyle=orthogonalEdgeStyle;rounded=0;orthogonalLoop=1;jettySize=auto;html=1;exitX=0.5;exitY=0.5;exitDx=0;exitDy=0;exitPerimeter=0;entryX=0;entryY=0.5;entryDx=0;entryDy=0;" edge="1" parent="1" source="jMSQg3RDcd7D9PXwIHBd-1" target="jMSQg3RDcd7D9PXwIHBd-3">
          <mxGeometry relative="1" as="geometry">
            <mxPoint x="230" y="150" as="targetPoint" />
          </mxGeometry>
        </mxCell>
        <mxCell id="jMSQg3RDcd7D9PXwIHBd-7" style="edgeStyle=orthogonalEdgeStyle;rounded=0;orthogonalLoop=1;jettySize=auto;html=1;exitX=1;exitY=1;exitDx=0;exitDy=0;exitPerimeter=0;entryX=0;entryY=0.5;entryDx=0;entryDy=0;" edge="1" parent="1" source="jMSQg3RDcd7D9PXwIHBd-1" target="jMSQg3RDcd7D9PXwIHBd-6">
          <mxGeometry relative="1" as="geometry">
            <mxPoint x="230" y="210" as="targetPoint" />
            <Array as="points">
              <mxPoint x="100" y="205" />
            </Array>
          </mxGeometry>
        </mxCell>
        <mxCell id="jMSQg3RDcd7D9PXwIHBd-16" style="edgeStyle=orthogonalEdgeStyle;rounded=0;orthogonalLoop=1;jettySize=auto;html=1;exitX=0;exitY=1;exitDx=0;exitDy=0;exitPerimeter=0;entryX=0;entryY=0.5;entryDx=0;entryDy=0;" edge="1" parent="1" source="jMSQg3RDcd7D9PXwIHBd-1" target="jMSQg3RDcd7D9PXwIHBd-15">
          <mxGeometry relative="1" as="geometry" />
        </mxCell>
        <mxCell id="jMSQg3RDcd7D9PXwIHBd-1" value="Cliente" style="shape=umlActor;verticalLabelPosition=bottom;verticalAlign=top;html=1;outlineConnect=0;" vertex="1" parent="1">
          <mxGeometry x="70" y="120" width="30" height="60" as="geometry" />
        </mxCell>
        <mxCell id="jMSQg3RDcd7D9PXwIHBd-2" value="" style="swimlane;startSize=0;" vertex="1" parent="1">
          <mxGeometry x="160" y="80" width="250" height="300" as="geometry" />
        </mxCell>
        <mxCell id="jMSQg3RDcd7D9PXwIHBd-3" value="pedir produto" style="ellipse;whiteSpace=wrap;html=1;" vertex="1" parent="jMSQg3RDcd7D9PXwIHBd-2">
          <mxGeometry x="75" y="40" width="100" height="50" as="geometry" />
        </mxCell>
        <mxCell id="jMSQg3RDcd7D9PXwIHBd-6" value="fazer login" style="ellipse;whiteSpace=wrap;html=1;" vertex="1" parent="jMSQg3RDcd7D9PXwIHBd-2">
          <mxGeometry x="75" y="100" width="100" height="50" as="geometry" />
        </mxCell>
        <mxCell id="jMSQg3RDcd7D9PXwIHBd-9" value="cadastrar produtos" style="ellipse;whiteSpace=wrap;html=1;" vertex="1" parent="jMSQg3RDcd7D9PXwIHBd-2">
          <mxGeometry x="75" y="220" width="100" height="50" as="geometry" />
        </mxCell>
        <mxCell id="jMSQg3RDcd7D9PXwIHBd-15" value="fazer cadastro" style="ellipse;whiteSpace=wrap;html=1;" vertex="1" parent="jMSQg3RDcd7D9PXwIHBd-2">
          <mxGeometry x="75" y="160" width="100" height="50" as="geometry" />
        </mxCell>
        <mxCell id="jMSQg3RDcd7D9PXwIHBd-10" style="edgeStyle=orthogonalEdgeStyle;rounded=0;orthogonalLoop=1;jettySize=auto;html=1;exitX=0;exitY=1;exitDx=0;exitDy=0;exitPerimeter=0;entryX=1;entryY=0.5;entryDx=0;entryDy=0;" edge="1" parent="1" source="jMSQg3RDcd7D9PXwIHBd-14" target="jMSQg3RDcd7D9PXwIHBd-9">
          <mxGeometry relative="1" as="geometry">
            <mxPoint x="85" y="310" as="sourcePoint" />
            <Array as="points">
              <mxPoint x="460" y="180" />
              <mxPoint x="460" y="315" />
            </Array>
          </mxGeometry>
        </mxCell>
        <mxCell id="jMSQg3RDcd7D9PXwIHBd-17" style="edgeStyle=orthogonalEdgeStyle;rounded=0;orthogonalLoop=1;jettySize=auto;html=1;exitX=0;exitY=0.3333333333333333;exitDx=0;exitDy=0;exitPerimeter=0;entryX=1;entryY=0.5;entryDx=0;entryDy=0;" edge="1" parent="1" source="jMSQg3RDcd7D9PXwIHBd-14" target="jMSQg3RDcd7D9PXwIHBd-6">
          <mxGeometry relative="1" as="geometry">
            <Array as="points">
              <mxPoint x="400" y="140" />
              <mxPoint x="400" y="205" />
            </Array>
          </mxGeometry>
        </mxCell>
        <mxCell id="jMSQg3RDcd7D9PXwIHBd-18" style="edgeStyle=orthogonalEdgeStyle;rounded=0;orthogonalLoop=1;jettySize=auto;html=1;exitX=0.5;exitY=0.5;exitDx=0;exitDy=0;exitPerimeter=0;entryX=1;entryY=0.5;entryDx=0;entryDy=0;" edge="1" parent="1" source="jMSQg3RDcd7D9PXwIHBd-14" target="jMSQg3RDcd7D9PXwIHBd-15">
          <mxGeometry relative="1" as="geometry">
            <Array as="points">
              <mxPoint x="430" y="150" />
              <mxPoint x="430" y="260" />
            </Array>
          </mxGeometry>
        </mxCell>
        <mxCell id="jMSQg3RDcd7D9PXwIHBd-14" value="Dona" style="shape=umlActor;verticalLabelPosition=bottom;verticalAlign=top;html=1;outlineConnect=0;" vertex="1" parent="1">
          <mxGeometry x="490" y="120" width="30" height="60" as="geometry" />
        </mxCell>
        <mxCell id="jMSQg3RDcd7D9PXwIHBd-19" style="edgeStyle=orthogonalEdgeStyle;rounded=0;orthogonalLoop=1;jettySize=auto;html=1;exitX=0.5;exitY=1;exitDx=0;exitDy=0;" edge="1" parent="1" source="jMSQg3RDcd7D9PXwIHBd-2" target="jMSQg3RDcd7D9PXwIHBd-2">
          <mxGeometry relative="1" as="geometry" />
        </mxCell>
      </root>
    </mxGraphModel>
  </diagram>
</mxfile>
